<svg width="507" height="192" viewBox="0 0 507 192" fill="none" xmlns="http://www.w3.org/2000/svg">
<rect width="507" height="192" rx="35" fill="white"/>
<rect width="507" height="192" rx="35" fill="url(#paint0_linear_97_5)" fill-opacity="0.3"/>
<rect width="507" height="192" rx="35" fill="url(#paint1_linear_97_5)" fill-opacity="0.5"/>
<path d="M133.754 121.9C129.914 121.9 126.524 120.97 123.584 119.11C120.644 117.25 118.334 114.49 116.654 110.83C114.974 107.11 114.134 102.52 114.134 97.06C114.134 88.9 115.904 82.66 119.444 78.34C123.044 74.02 127.934 71.86 134.114 71.86C136.394 71.86 138.464 72.19 140.324 72.85C142.184 73.45 143.834 74.32 145.274 75.46C146.774 76.54 148.034 77.83 149.054 79.33H149.414L150.584 72.76H156.884V110.38C156.884 112.24 157.244 113.56 157.964 114.34C158.684 115.06 159.554 115.42 160.574 115.42C161.054 115.42 161.564 115.36 162.104 115.24C162.644 115.12 163.034 115.03 163.274 114.97V120.73C162.974 120.91 162.554 121.09 162.014 121.27C161.474 121.45 160.874 121.6 160.214 121.72C159.554 121.84 158.894 121.9 158.234 121.9C156.014 121.9 154.154 121.36 152.654 120.28C151.214 119.2 150.164 117.28 149.504 114.52H148.874C147.914 115.96 146.714 117.25 145.274 118.39C143.834 119.47 142.154 120.34 140.234 121C138.314 121.6 136.154 121.9 133.754 121.9ZM135.374 115.33C138.674 115.33 141.314 114.7 143.294 113.44C145.334 112.18 146.804 110.23 147.704 107.59C148.604 104.95 149.054 101.59 149.054 97.51V96.97C149.054 90.97 148.034 86.38 145.994 83.2C144.014 80.02 140.444 78.43 135.284 78.43C130.904 78.43 127.634 80.05 125.474 83.29C123.374 86.47 122.324 91.09 122.324 97.15C122.324 103.15 123.434 107.68 125.654 110.74C127.874 113.8 131.114 115.33 135.374 115.33ZM190.702 121.967C186.073 121.967 182.367 121.234 179.584 119.77C176.83 118.275 174.838 116.312 173.607 113.881C172.377 111.42 171.762 108.754 171.762 105.883V88.1289C171.762 83.7344 173.432 80.2041 176.771 77.5381C180.141 74.8721 184.711 73.5391 190.482 73.5391C194.203 73.5391 197.44 73.9785 200.194 74.8574C202.948 75.707 205.072 77.2598 206.566 79.5156C208.09 81.7715 208.852 84.9941 208.852 89.1836L200.985 89.9307C200.985 87.0889 200.663 84.9502 200.019 83.5146C199.374 82.0791 198.305 81.1123 196.811 80.6143C195.316 80.1162 193.28 79.8672 190.702 79.8672C187.157 79.8672 184.491 80.5117 182.704 81.8008C180.917 83.0605 180.023 85.2432 180.023 88.3486V106.586C180.023 109.926 180.961 112.27 182.836 113.617C184.74 114.965 187.362 115.639 190.702 115.639C193.427 115.639 195.492 115.448 196.898 115.067C198.334 114.657 199.345 113.866 199.931 112.694C200.517 111.493 200.912 109.721 201.117 107.377H208.764C208.471 110.951 207.709 113.808 206.479 115.946C205.248 118.085 203.358 119.623 200.81 120.561C198.29 121.498 194.921 121.967 190.702 121.967ZM239.306 121.967C234.677 121.967 230.971 121.234 228.188 119.77C225.434 118.275 223.441 116.312 222.211 113.881C220.98 111.42 220.365 108.754 220.365 105.883V88.1289C220.365 83.7344 222.035 80.2041 225.375 77.5381C228.744 74.8721 233.314 73.5391 239.086 73.5391C242.807 73.5391 246.044 73.9785 248.798 74.8574C251.552 75.707 253.676 77.2598 255.17 79.5156C256.693 81.7715 257.455 84.9941 257.455 89.1836L249.589 89.9307C249.589 87.0889 249.267 84.9502 248.622 83.5146C247.978 82.0791 246.908 81.1123 245.414 80.6143C243.92 80.1162 241.884 79.8672 239.306 79.8672C235.761 79.8672 233.095 80.5117 231.308 81.8008C229.521 83.0605 228.627 85.2432 228.627 88.3486V106.586C228.627 109.926 229.564 112.27 231.439 113.617C233.344 114.965 235.966 115.639 239.306 115.639C242.03 115.639 244.096 115.448 245.502 115.067C246.938 114.657 247.948 113.866 248.534 112.694C249.12 111.493 249.516 109.721 249.721 107.377H257.367C257.074 110.951 256.312 113.808 255.082 115.946C253.852 118.085 251.962 119.623 249.413 120.561C246.894 121.498 243.524 121.967 239.306 121.967ZM268.969 104.564V88.3486C268.969 83.9541 270.478 80.3945 273.495 77.6699C276.513 74.916 281.361 73.5391 288.041 73.5391C294.428 73.5391 299.13 74.7988 302.147 77.3184C305.165 79.8086 306.674 83.2656 306.674 87.6895V98.7637H277.23V105.312C277.23 109.091 277.978 111.757 279.472 113.31C280.995 114.862 283.954 115.639 288.349 115.639C290.956 115.639 293.007 115.551 294.501 115.375C296.024 115.17 297.138 114.584 297.841 113.617C298.573 112.621 299.057 110.951 299.291 108.607H306.586C306.205 112.27 305.399 115.067 304.169 117.001C302.968 118.905 301.107 120.209 298.588 120.912C296.068 121.615 292.655 121.967 288.349 121.967C283.72 121.967 279.984 121.322 277.143 120.033C274.301 118.744 272.221 116.811 270.902 114.232C269.613 111.654 268.969 108.432 268.969 104.564ZM298.676 93.1826V86.8105C298.676 84.9355 298.222 83.5 297.313 82.5039C296.435 81.5078 295.204 80.8193 293.622 80.4385C292.04 80.0576 290.18 79.8672 288.041 79.8672C284.76 79.8672 282.138 80.4385 280.175 81.5811C278.212 82.7236 277.23 84.7305 277.23 87.6016V93.1826H298.676ZM320.648 74.418H328.91V78.9443C330.287 77.3623 332.089 76.0732 334.315 75.0771C336.542 74.0518 339.34 73.5391 342.709 73.5391C346.547 73.5391 349.623 74.1689 351.938 75.4287C354.281 76.6592 355.98 78.3145 357.035 80.3945C358.09 82.4453 358.617 84.7012 358.617 87.1621V121H350.355V86.6787C350.355 85.126 349.945 83.8516 349.125 82.8555C348.305 81.8594 347.162 81.1123 345.697 80.6143C344.232 80.1162 342.533 79.8672 340.6 79.8672C337.904 79.8672 335.692 80.2188 333.964 80.9219C332.235 81.625 330.961 82.5771 330.141 83.7783C329.32 84.9795 328.91 86.3271 328.91 87.8213V121H320.648V74.418ZM390.742 121.81C387.322 121.81 384.442 121.21 382.102 120.01C379.822 118.75 378.112 116.95 376.972 114.61C375.832 112.21 375.262 109.3 375.262 105.88V82.93H369.232C368.212 82.93 367.432 82.69 366.892 82.21C366.352 81.67 366.082 80.95 366.082 80.05C366.082 79.15 366.352 78.46 366.892 77.98C367.432 77.5 368.212 77.26 369.232 77.26H375.262V66.91C375.262 65.71 375.592 64.81 376.252 64.21C376.912 63.55 377.812 63.22 378.952 63.22C380.092 63.22 380.962 63.55 381.562 64.21C382.222 64.81 382.552 65.71 382.552 66.91V77.26H393.892C394.912 77.26 395.692 77.5 396.232 77.98C396.772 78.46 397.042 79.15 397.042 80.05C397.042 80.95 396.772 81.67 396.232 82.21C395.692 82.69 394.912 82.93 393.892 82.93H382.552V105.16C382.552 108.58 383.272 111.19 384.712 112.99C386.152 114.73 388.492 115.6 391.732 115.6C392.872 115.6 393.832 115.48 394.612 115.24C395.452 115 396.142 114.88 396.682 114.88C397.222 114.82 397.672 115 398.032 115.42C398.392 115.84 398.572 116.56 398.572 117.58C398.572 118.3 398.422 118.96 398.122 119.56C397.882 120.16 397.432 120.58 396.772 120.82C396.052 121.06 395.092 121.27 393.892 121.45C392.752 121.69 391.702 121.81 390.742 121.81Z" fill="#264653"/>
<defs>
<linearGradient id="paint0_linear_97_5" x1="253.5" y1="0" x2="253.5" y2="192" gradientUnits="userSpaceOnUse">
<stop stop-color="#F4A261" stop-opacity="0"/>
<stop offset="0.35" stop-color="#F4A261"/>
</linearGradient>
<linearGradient id="paint1_linear_97_5" x1="253.5" y1="0" x2="253.5" y2="192" gradientUnits="userSpaceOnUse">
<stop stop-color="#F4A261"/>
<stop offset="0.43" stop-color="#F4A261" stop-opacity="0"/>
</linearGradient>
</defs>
</svg>
