<svg width="512" height="512" viewBox="0 0 512 512" fill="none" xmlns="http://www.w3.org/2000/svg">
<g clip-path="url(#clip0_96_8)">
<path d="M511.592 0.294037H-0.408447V512.294H511.592V0.294037Z" fill="white"/>
<path d="M511.592 0.294037H-0.408447V512.294H511.592V0.294037Z" fill="url(#paint0_linear_96_8)" fill-opacity="0.3"/>
<path d="M511.592 0.294037H-0.408447V512.294H511.592V0.294037Z" fill="url(#paint1_linear_96_8)" fill-opacity="0.5"/>
<path d="M232.182 369.627C215.116 369.627 200.049 365.494 186.982 357.227C173.916 348.961 163.649 336.694 156.182 320.427C148.716 303.894 144.982 283.494 144.982 259.227C144.982 222.961 152.849 195.227 168.582 176.027C184.582 156.827 206.316 147.227 233.782 147.227C243.916 147.227 253.116 148.694 261.381 151.627C269.648 154.294 276.981 158.161 283.381 163.227C290.048 168.027 295.648 173.761 300.181 180.427H301.781L306.981 151.227H334.981V318.427C334.981 326.694 336.581 332.561 339.781 336.027C342.981 339.227 346.848 340.827 351.381 340.827C353.514 340.827 355.781 340.561 358.181 340.027C360.581 339.494 362.314 339.094 363.381 338.827V364.427C362.048 365.227 360.181 366.027 357.781 366.827C355.381 367.627 352.714 368.294 349.781 368.827C346.848 369.361 343.914 369.627 340.981 369.627C331.114 369.627 322.848 367.227 316.181 362.427C309.781 357.627 305.114 349.094 302.181 336.827H299.381C295.114 343.227 289.781 348.961 283.381 354.027C276.981 358.827 269.514 362.694 260.981 365.627C252.449 368.294 242.849 369.627 232.182 369.627ZM239.382 340.427C254.049 340.427 265.781 337.627 274.581 332.027C283.648 326.427 290.181 317.761 294.181 306.027C298.181 294.294 300.181 279.361 300.181 261.227V258.827C300.181 232.161 295.648 211.761 286.581 197.627C277.781 183.494 261.914 176.427 238.982 176.427C219.516 176.427 204.982 183.627 195.382 198.027C186.049 212.161 181.382 232.694 181.382 259.627C181.382 286.294 186.316 306.427 196.182 320.027C206.049 333.627 220.449 340.427 239.382 340.427Z" fill="#264653"/>
</g>
<defs>
<linearGradient id="paint0_linear_96_8" x1="255.592" y1="0.294036" x2="255.592" y2="512.294" gradientUnits="userSpaceOnUse">
<stop stop-color="#F4A261" stop-opacity="0"/>
<stop offset="0.35" stop-color="#F4A261"/>
</linearGradient>
<linearGradient id="paint1_linear_96_8" x1="255.592" y1="0.294036" x2="255.592" y2="512.294" gradientUnits="userSpaceOnUse">
<stop stop-color="#F4A261"/>
<stop offset="0.43" stop-color="#F4A261" stop-opacity="0"/>
</linearGradient>
<clipPath id="clip0_96_8">
<rect width="512" height="512" rx="128" fill="white"/>
</clipPath>
</defs>
</svg>
