<svg width="43" height="41" viewBox="0 0 43 41" fill="none" xmlns="http://www.w3.org/2000/svg">
<path d="M21.5 0.875079C16.0877 0.820081 10.8751 2.91622 7.00762 6.70281C3.14016 10.4894 0.934363 15.6566 0.875 21.0688C0.895854 25.346 2.27177 29.5066 4.80512 32.9529C7.33847 36.3992 10.8989 38.9539 14.975 40.2501C16.0063 40.4376 16.3813 39.8188 16.3813 39.2751C16.3813 38.7313 16.3813 37.5313 16.3813 35.8438C10.6438 37.0626 9.425 33.1438 9.425 33.1438C9.04306 31.9136 8.23106 30.862 7.1375 30.1813C5.2625 28.9438 7.2875 28.9626 7.2875 28.9626C7.9356 29.0492 8.55567 29.2815 9.10121 29.6419C9.64675 30.0024 10.1036 30.4817 10.4375 31.0438C11.0194 32.0528 11.9741 32.793 13.0963 33.1051C14.2184 33.4172 15.4182 33.2762 16.4375 32.7126C16.5423 31.6858 17.0073 30.7293 17.75 30.0126C13.175 29.5063 8.375 27.7813 8.375 20.0376C8.33409 18.0176 9.08045 16.0609 10.4563 14.5813C9.82968 12.8471 9.90366 10.9369 10.6625 9.25633C10.6625 9.25633 12.4063 8.71258 16.2875 11.3188C19.6661 10.4185 23.2214 10.4185 26.6 11.3188C30.5375 8.71258 32.225 9.25633 32.225 9.25633C32.9838 10.9369 33.0578 12.8471 32.4312 14.5813C33.839 16.0338 34.6258 17.9774 34.625 20.0001C34.625 27.7626 29.7875 29.4688 25.25 29.9751C25.7468 30.4575 26.1306 31.0439 26.3738 31.6923C26.6169 32.3407 26.7134 33.035 26.6562 33.7251V39.2563C26.6562 39.2563 27.0312 40.4376 28.0625 40.2313C32.127 38.9271 35.6755 36.3718 38.201 32.9303C40.7265 29.4889 42.0999 25.3374 42.125 21.0688C42.0656 15.6566 39.8598 10.4894 35.9924 6.70281C32.1249 2.91622 26.9123 0.820081 21.5 0.875079Z" fill="#264653"/>
</svg>
