<svg width="44" height="44" viewBox="0 0 44 44" fill="none" xmlns="http://www.w3.org/2000/svg">
<path d="M22 0C9.85059 0 0 9.85414 0 22C0 34.153 9.85059 44 22 44C34.1494 44 44 34.153 44 22C44 9.85414 34.1494 0 22 0ZM22 9.75806C24.0577 9.75806 25.7258 11.4262 25.7258 13.4839C25.7258 15.5416 24.0577 17.2097 22 17.2097C19.9423 17.2097 18.2742 15.5416 18.2742 13.4839C18.2742 11.4262 19.9423 9.75806 22 9.75806ZM26.9677 32.2903C26.9677 32.8782 26.4911 33.3548 25.9032 33.3548H18.0968C17.5089 33.3548 17.0323 32.8782 17.0323 32.2903V30.1613C17.0323 29.5734 17.5089 29.0968 18.0968 29.0968H19.1613V23.4194H18.0968C17.5089 23.4194 17.0323 22.9427 17.0323 22.3548V20.2258C17.0323 19.6379 17.5089 19.1613 18.0968 19.1613H23.7742C24.3621 19.1613 24.8387 19.6379 24.8387 20.2258V29.0968H25.9032C26.4911 29.0968 26.9677 29.5734 26.9677 30.1613V32.2903Z" fill="#264653" fill-opacity="0.95"/>
</svg>
